<svg width="1000" height="1000" xmlns="http://www.w3.org/2000/svg">
 <metadata>Svg Vector Icons : http://www.onlinewebfonts.com/icon</metadata>

 <g>
  <title>background</title>
  <rect fill="none" id="canvas_background" height="602" width="802" y="-1" x="-1"/>
 </g>
 <g>
  <title>Layer 1</title>
  <g id="svg_1">
   <g id="svg_2" transform="translate(0.000000,512.000000) scale(0.100000,-0.100000)">
    <path fill="#ffffff" id="svg_3" d="m2305.4,3914.9l-1322.3,-1103.2l0,-3797.8c0,-3032.8 5.8,-3793.9 25,-3782.4c11.5,9.6 613.1,507.4 1335.7,1109l1310.8,1093.6l63.4,-48.1c32.7,-26.9 632.3,-524.7 1330,-1107.1c697.7,-582.3 1280,-1059 1293.5,-1059s620.8,497.8 1349.2,1105.1l1326.1,1105.1l0,3797.9c0,3032.8 -5.8,3793.9 -23,3782.4c-13.5,-9.6 -615,-507.4 -1337.7,-1109l-1310.7,-1093.6l-63.4,48c-32.7,26.9 -632.3,524.7 -1330,1107c-697.7,582.5 -1282,1057.2 -1297.4,1057.2s-622.7,-497.8 -1349.2,-1105.1zm1176.3,-2857.9l0,-3273.1l-984,-805.3c-540.1,-444 -1003.3,-822.6 -1028.2,-841.8l-44.2,-34.6l0,3263.5l0,3265.3l1022.5,849.5c563.1,467 1026.3,849.5 1028.2,849.5c3.7,0 5.7,-1472.2 5.7,-3273zm1533.7,2296.7l1118.6,-930.2l0,-3257.7c0,-2006.5 -7.7,-3253.9 -17.3,-3250c-9.6,3.8 -524.7,420.9 -1143.5,928.3l-1124.3,922.5l-1.9,3273.1c0,2613.8 5.8,3271.1 25,3259.6c11.4,-7.7 526.4,-434.4 1143.4,-945.6zm3559.4,-2469.7l0,-3273.1l-962.9,-826.4c-530.5,-453.6 -976.4,-832.2 -989.8,-839.9c-23.1,-13.5 -26.9,499.7 -25,3248.1l0,3263.4l984,849.5c542,469 986,851.4 989.8,851.4c2,0.1 3.9,-1472.2 3.9,-3273z"/>
   </g>
  </g>
 </g>
</svg>