<?xml version="1.0" encoding="utf-8"?>
<!-- Generator: Adobe Illustrator 24.3.0, SVG Export Plug-In . SVG Version: 6.00 Build 0)  -->
<svg version="1.1" id="Слой_1" xmlns="http://www.w3.org/2000/svg" xmlns:xlink="http://www.w3.org/1999/xlink" x="0px" y="0px"
	 viewBox="0 0 24 24" style="enable-background:new 0 0 24 24;" xml:space="preserve">
<style type="text/css">
	.st0{fill:#FFFFFF;stroke:#FFFFFF;stroke-miterlimit:10;}
</style>
<path class="st0" d="M2,18.5v-13C2,4.1,3.1,3,4.5,3h15C20.9,3,22,4.1,22,5.5v13c0,1.4-1.1,2.5-2.5,2.5h-15C3.1,21,2,19.9,2,18.5z
	 M3,14.5C3.4,14.2,3.9,14,4.5,14h15c0.6,0,1.1,0.2,1.5,0.5v-9C21,4.7,20.3,4,19.5,4h-15C3.7,4,3,4.7,3,5.5V14.5L3,14.5z M3,18.5
	C3,19.3,3.7,20,4.5,20h15c0.8,0,1.5-0.7,1.5-1.5v-2c0-0.8-0.7-1.5-1.5-1.5h-15C3.7,15,3,15.7,3,16.5V18.5z M17.5,16h2
	c0.3,0,0.5,0.2,0.5,0.5v2c0,0.3-0.2,0.5-0.5,0.5h-2c-0.3,0-0.5-0.2-0.5-0.5v-2C17,16.2,17.2,16,17.5,16z M18,17v1h1v-1H18z M5.5,18
	C5.2,18,5,17.8,5,17.5S5.2,17,5.5,17h6c0.3,0,0.5,0.2,0.5,0.5S11.8,18,11.5,18H5.5z"/>
</svg>
