<?xml version="1.0" encoding="utf-8"?>
<!-- Generator: Adobe Illustrator 24.3.0, SVG Export Plug-In . SVG Version: 6.00 Build 0)  -->
<svg version="1.1" id="Capa_1" xmlns="http://www.w3.org/2000/svg" xmlns:xlink="http://www.w3.org/1999/xlink" x="0px" y="0px"
	 viewBox="0 0 612 612" style="enable-background:new 0 0 612 612;" xml:space="preserve">
<style type="text/css">
	.st0{fill:#888888;}
</style>
<g>
	<g id="_x37__2_">
		<g>
			<path class="st0" d="M535.5,76.5h-459C34.3,76.5,0,110.8,0,153v306c0,42.2,34.3,76.5,76.5,76.5h459c42.2,0,76.5-34.3,76.5-76.5
				V153C612,110.8,577.7,76.5,535.5,76.5z M554.6,114.8L306,306L57.4,114.8H554.6z M38.3,459V153l172.1,133.9L40.1,470.1
				C39,466.5,38.3,462.9,38.3,459z M68,496.2l172.6-183.9l65.4,49.4l62.6-49.7L544,496.2C541.3,496.8,70.7,496.8,68,496.2z
				 M571.9,470.1L401.6,286.9L573.8,153v306C573.8,462.9,573,466.5,571.9,470.1z"/>
		</g>
	</g>
</g>
</svg>
