<?xml version="1.0" encoding="utf-8"?>
<!-- Generator: Adobe Illustrator 24.3.0, SVG Export Plug-In . SVG Version: 6.00 Build 0)  -->
<svg version="1.1" id="Слой_1" xmlns="http://www.w3.org/2000/svg" xmlns:xlink="http://www.w3.org/1999/xlink" x="0px" y="0px"
	 viewBox="0 0 512 512" style="enable-background:new 0 0 512 512;" xml:space="preserve">
<style type="text/css">
	.st0{fill:#888888;}
</style>
<path class="st0" d="M487.9,233.7L424,176.8V89.4L350.6,16H152v128H80c-13.2,0-24,10.8-24,24v304c0,13.2,10.8,24,24,24h416V251.6
	C496,244.7,493.1,238.2,487.9,233.7z M152,464H88V176h64V464z M328,48h9.4l54.6,54.6v9.4h-64V48z M184,48h112v96h96v72H184V48z
	 M464,464H184V248h240v-28.4l40,35.6V464z"/>
<rect x="232" y="344" class="st0" width="32" height="32"/>
<rect x="296" y="344" class="st0" width="32" height="32"/>
<rect x="232" y="408" class="st0" width="32" height="32"/>
<rect x="296" y="408" class="st0" width="32" height="32"/>
<rect x="360" y="344" class="st0" width="32" height="32"/>
<rect x="360" y="408" class="st0" width="32" height="32"/>
<rect x="232" y="280" class="st0" width="160" height="32"/>
</svg>
