<?xml version="1.0" encoding="utf-8"?>
<!-- Generator: Adobe Illustrator 24.3.0, SVG Export Plug-In . SVG Version: 6.00 Build 0)  -->
<svg version="1.1" id="Слой_1" xmlns="http://www.w3.org/2000/svg" xmlns:xlink="http://www.w3.org/1999/xlink" x="0px" y="0px"
	 viewBox="0 0 32 32" style="enable-background:new 0 0 32 32;" xml:space="preserve">
<style type="text/css">
	.st0{fill:#fff;}
	.st1{fill:none;}
</style>
<path class="st0" d="M12,0L12,0L12,0C5.7,0,1,4.8,0.2,10.2C0.1,11,0,11.6,0,12.3c0,2,0.6,3.7,2.1,6.3s3.8,6.2,7.5,12.1l0,0l0,0
	c0.6,0.8,1.5,1.2,2.4,1.2l0,0l0,0c0.9,0,1.8-0.4,2.4-1.2l0,0l0,0c0.8-1.3,1.5-2.5,2.2-3.6l-1.6-1c-0.7,1.1-1.4,2.2-2.2,3.5
	C12.6,29.9,12.3,30,12,30s-0.6-0.1-0.8-0.4c-3.7-5.9-6-9.5-7.4-12S2,13.8,2,12.3c0-0.5,0-1.1,0.1-1.8C2.8,6,6.8,2,12,2
	c5.3,0,9.2,4,9.9,8.5l0,0c0.1,0.7,0.1,1.2,0.1,1.8c0,0.7-0.1,1.3-0.3,2l1.9,0.6c0.3-0.9,0.4-1.7,0.4-2.6c0-0.7-0.1-1.3-0.2-2l0,0
	C23.1,4.8,18.4,0,12,0z"/>
<g>
	<path class="st0" d="M30,22v-4h-4l-2-2l-8,8l2,2c0,2.1,0,3.9,0,6c1,0,3,0,4,0c0-2,0-3.7,0-6h4v6c1,0,3,0,4,0c0-2,0-3.7,0-6l2-2
		L30,22z"/>
	<path class="st0" d="M8.1,12c0,2.2,1.8,4,4,4s4-1.8,4-4s-1.8-4-4-4S8.1,9.8,8.1,12z M14.1,12c0,1.1-0.9,2-2,2s-2-0.9-2-2s0.9-2,2-2
		S14.1,10.9,14.1,12z"/>
</g>
<rect x="0.1" class="st1" width="32" height="32"/>
</svg>
