<?xml version="1.0" encoding="utf-8"?>
<!-- Generator: Adobe Illustrator 24.3.0, SVG Export Plug-In . SVG Version: 6.00 Build 0)  -->
<svg version="1.1" id="Слой_1" xmlns="http://www.w3.org/2000/svg" xmlns:xlink="http://www.w3.org/1999/xlink" x="0px" y="0px"
	 viewBox="0 0 16 16" style="enable-background:new 0 0 16 16;" xml:space="preserve">
<style type="text/css">
	.st0{fill:#FFFFFF;}
</style>
<path class="st0" d="M13.6,2.6l-1.7-1.7c-0.3-0.3-0.8-0.5-1.3-0.5h-7l0,0c-0.5,0-0.9,0.2-1.3,0.5S1.9,1.7,1.9,2.2v11.6
	c0,1,0.8,1.8,1.8,1.8h8.7c1,0,1.8-0.8,1.8-1.8v-10C14.1,3.4,13.9,2.9,13.6,2.6L13.6,2.6z M13.1,3.1c0.2,0.2,0.3,0.4,0.3,0.6h-2.3
	c-0.1,0-0.3-0.1-0.3-0.3V1.1c0.2,0,0.4,0.1,0.6,0.3C11.5,1.4,13.1,3.1,13.1,3.1z M12.4,14.9H3.7c-0.6,0-1.1-0.5-1.1-1.1V2.1
	c0-0.3,0.1-0.6,0.3-0.8C3.1,1.1,3.4,1,3.7,1l0,0l6.5,0v2.3c0,0.5,0.4,0.9,0.9,0.9h2.3v9.5C13.5,14.4,13,14.9,12.4,14.9L12.4,14.9z"
	/>
<path class="st0" d="M10.9,9.1H7c-0.2,0-0.3,0.1-0.3,0.3c0,0.2,0.1,0.3,0.3,0.3h4c0.2,0,0.3-0.1,0.3-0.3C11.3,9.3,11.1,9.1,10.9,9.1
	z"/>
<path class="st0" d="M10.9,6.2H7c-0.2,0-0.3,0.1-0.3,0.3c0,0.2,0.1,0.3,0.3,0.3h4c0.2,0,0.3-0.1,0.3-0.3C11.3,6.3,11.1,6.2,10.9,6.2
	z"/>
<path class="st0" d="M10.9,12H7c-0.2,0-0.3,0.1-0.3,0.3s0.1,0.3,0.3,0.3h4c0.2,0,0.3-0.1,0.3-0.3S11.1,12,10.9,12z"/>
<path class="st0" d="M5.5,6H5.1C5,6,4.8,6.2,4.8,6.4v0.4C4.8,6.9,4.9,7,5.1,7h0.4c0.2,0,0.3-0.1,0.3-0.3V6.4C5.8,6.2,5.7,6,5.5,6z"
	/>
<path class="st0" d="M5.5,8.9H5.1C5,8.9,4.8,9.1,4.8,9.3v0.4c0,0.2,0.1,0.3,0.3,0.3h0.4c0.2,0,0.3-0.1,0.3-0.3V9.3
	C5.8,9.1,5.7,8.9,5.5,8.9z"/>
<path class="st0" d="M5.5,11.9H5.1c-0.2,0-0.3,0.1-0.3,0.3v0.4c0,0.2,0.1,0.3,0.3,0.3h0.4c0.2,0,0.3-0.1,0.3-0.3v-0.4
	C5.8,11.9,5.7,11.9,5.5,11.9z"/>
</svg>
