<svg
 xmlns="http://www.w3.org/2000/svg"
 xmlns:xlink="http://www.w3.org/1999/xlink"
 width="8px" height="11px">
<path fill-rule="evenodd"  fill="rgb(51, 133, 117)"
 d="M7.528,10.113 C7.329,10.060 7.149,9.854 6.988,9.734 C6.452,9.350 5.916,8.965 5.380,8.581 C3.763,7.422 2.145,6.263 0.528,5.104 C0.538,5.104 0.547,5.104 0.556,5.104 C2.880,3.441 5.204,1.777 7.528,0.113 C7.528,3.446 7.528,6.780 7.528,10.113 ZM7.029,9.063 C7.029,6.430 7.029,3.796 7.029,1.163 C5.191,2.482 3.351,3.802 1.512,5.122 C3.351,6.435 5.191,7.749 7.029,9.063 Z"/>
</svg>