<?xml version="1.0" encoding="utf-8"?>
<!-- Generator: Adobe Illustrator 24.3.0, SVG Export Plug-In . SVG Version: 6.00 Build 0)  -->
<svg version="1.1" id="Слой_1" xmlns="http://www.w3.org/2000/svg" xmlns:xlink="http://www.w3.org/1999/xlink" x="0px" y="0px"
	 viewBox="0 0 38 26" style="enable-background:new 0 0 38 26;" xml:space="preserve">
<style type="text/css">
	.st0{fill:none;stroke:#FFFFFF;stroke-width:2;stroke-miterlimit:10;}
	.st1{fill:none;stroke:#FFFFFF;stroke-width:2;stroke-linecap:round;stroke-miterlimit:10;}
</style>
<g>
	<path class="st0" d="M32.8,25H5.1c-2,0-3.7-1.7-3.7-3.7V4.7c0-2,1.7-3.7,3.7-3.7h27.7c2,0,3.7,1.7,3.7,3.7v16.6
		C36.5,23.3,34.9,25,32.8,25z"/>
	<path class="st0" d="M11.6,11.3c1.7,0,3-1.3,3-2.9c0-1.6-1.3-2.9-3-2.9c-1.7,0-3,1.3-3,2.9C8.6,10,9.9,11.3,11.6,11.3z"/>
	<path class="st0" d="M15.6,20.4h-8c-0.8,0-1.5-0.7-1.5-1.5v-2.6c0-2.1,1.7-3.8,3.8-3.8h3.4c2.1,0,3.8,1.7,3.8,3.8v2.6
		C17.2,19.7,16.5,20.4,15.6,20.4z"/>
	<path class="st1" d="M21.8,7.5h10.1"/>
	<path class="st1" d="M21.8,11.2h10.1"/>
	<path class="st1" d="M21.8,14.8h10.1"/>
	<path class="st1" d="M21.8,18.5h10.1"/>
</g>
</svg>
