<?xml version="1.0" encoding="utf-8"?>
<!-- Generator: Adobe Illustrator 24.3.0, SVG Export Plug-In . SVG Version: 6.00 Build 0)  -->
<svg version="1.1"
	 id="svg7384" xmlns:cc="http://creativecommons.org/ns#" xmlns:dc="http://purl.org/dc/elements/1.1/" xmlns:osb="http://www.openswatchbook.org/uri/2009/osb" xmlns:rdf="http://www.w3.org/1999/02/22-rdf-syntax-ns#" xmlns:svg="http://www.w3.org/2000/svg"
	 xmlns="http://www.w3.org/2000/svg" xmlns:xlink="http://www.w3.org/1999/xlink" x="0px" y="0px" viewBox="0 0 16 16"
	 style="enable-background:new 0 0 16 16;" xml:space="preserve">
<style type="text/css">
	.st0{fill:#888888;}
</style>
<g id="layer9" transform="translate(-313.0002,-173)">
</g>
<g id="layer2" transform="translate(-72,-540)">
</g>
<g id="layer4" transform="translate(-72,-540)">
</g>
<g id="g1812" transform="translate(-72,-540)">
</g>
<g id="g6217" transform="translate(-72,-540)">
</g>
<g id="layer3" transform="translate(-72,-540)">
</g>
<g id="g1833" transform="translate(-72,-540)">
</g>
<g id="layer1" transform="translate(-72,-540)">
	<path id="path4116-6-7" class="st0" d="M80,540c-4.4,0-8,3.6-8,8s3.6,8,8,8s8-3.6,8-8S84.4,540,80,540z M80,541l0,0.6l0.9,0.1
		l0.6-0.6c0.6,0.1,1.2,0.3,1.7,0.6l-0.2,0.3l0.6,0.5l-0.6,0.5l0.2,0.6l1.4-0.6l0.8,0.6l0-0.1c0.2,0.2,0.3,0.5,0.5,0.7l-0.9,0.2
		l-0.5-0.5l-1.6,0.1l-0.9,1.5l0.6,1.6l2.1,0.6l0.4,2.5l0.5,1.3l0.4-0.2c-1.2,2.2-3.5,3.6-6.1,3.6c-3.9,0-7-3.1-7-7
		c0-0.8,0.1-1.6,0.4-2.3l0,0.1l1.1,0.3l1.4,1.1l0,1.5l0.9,1.3l0.5,3.4l1,0.6l-0.3-1.3l1.7-2.3l0.7-1.6l-1.7-1.6l-1.8-0.8l-0.7,0.4
		l-0.9-1.3l-0.5,0.2l-0.4-0.7l0.8-0.4l0.7,0.4l1.3-1.6l1.9-1.2l-0.5-0.9l-1.5,0.5l-0.2-0.2C77.9,541.3,78.9,541,80,541L80,541z"/>
</g>
</svg>
